M48
INCH
T01C0.0150
T02C0.0400
T03C0.0984
T04C0.0393
%
T01
X-006250Y-006750
X+013750Y-001250
X+016250Y+004250
X+021000Y-004000
X-007500Y-006500
X+017000Y-006500
X+016250Y+005500
X+012000Y+006500
X-016750Y+006500
X+015154Y-004475
X+000575Y-004448
X-017206Y-004881
X-018318Y-003776
X-008636Y-004982
X-009593Y-003845
X+005629Y-004865
X+004587Y-003843
X+017531Y+004633
X+018447Y+003413
X+013191Y+004624
X+014115Y+003463
X+008926Y+004671
X+009793Y+003451
X+003285Y+004571
X+004276Y+003471
X-001012Y+004600
X-005368Y+004561
X-004385Y+003444
X-015632Y+004546
X-014839Y+003746
X-017125Y+004724
X-018110Y+003346
X-006500Y+001250
X-005905Y-005118
X-004925Y-003839
X+008661Y-005118
X-013250Y+003500
X-015748Y-005118
X-001574Y-005118
X-000593Y-003846
X+012992Y-005118
X+013989Y-003836
X-007250Y-001250
X-008464Y+004724
X-009448Y+003470
X+012250Y-002500
X+017322Y-005118
X-009500Y-003000
X-016750Y-007750
X-002250Y+006500
X-012000Y+007250
X-012250Y-008500
X+017000Y-007000
X+006750Y-007000
X+016250Y+006500
X+007750Y+006500
X-006500Y+006500
X+015000Y-007250
X-002000Y-006750
X-019000Y+007000
X+000500Y-007250
X-014763Y+006496
X-000196Y+006496
X+013976Y+006496
X-000052Y+003442
X-002250Y+005000
X-009500Y+002952
X-019500Y+004000
X-013550Y-004497
X-002250Y+003500
X-006500Y+005000
X-012500Y+005000
X-019500Y+007500
X+021250Y-004750
X-005250Y-007250
X+007000Y+004000
X-018000Y-010000
X+019250Y-007750
X-019500Y-003000
X+002750Y-002750
X-006250Y-008250
X+014750Y-001250
X-002000Y-005500
X+007750Y-006500
X-019250Y-003500
X-020000Y+010000
X+008750Y-007250
X+011750Y-001250
X-000250Y-001250
X+019250Y-002500
X+012250Y+008000
X+009750Y+008000
X+002250Y+006500
X+012500Y-006750
X+012250Y-007750
X-013750Y-007250
X+011500Y-004671
X+012500Y-005750
X+017734Y+003292
X-000495Y-002630
X+001994Y-002641
X+000860Y-002634
X-012899Y+000060
X+003542Y-006436
X+009649Y-003836
X+018289Y+000805
X+009649Y-001854
X+018307Y-003740
X+017751Y+002777
X+014848Y+002463
X+017000Y+000000
X+018476Y-001751
X+018110Y-002118
X+017778Y+000787
X+011250Y-002250
X+007750Y-002250
X-004001Y+002169
X+005798Y-002114
X+003250Y-004000
X+002750Y+002416
X+012250Y+002250
X+007761Y+002092
X-014763Y+000984
X-014762Y-003838
X+011250Y+003500
X+016991Y+000872
X+016755Y+001614
X+013275Y+001574
X+012795Y+002362
X+019703Y+007596
X+019180Y-009836
X+006889Y-002362
X+010039Y-009645
X+001409Y+004410
X-003006Y+004305
X+001341Y+002435
X+000889Y+002032
X+005271Y+001415
X+018110Y+001181
X+009697Y+001718
X+010826Y+001181
X+007750Y+006000
X+006496Y+006102
X+002169Y+006118
X-001181Y+002165
X-001324Y+001629
X-001414Y+001135
X-001449Y+000051
X-010708Y-004000
X-011135Y-002103
X+010221Y+009589
X+007500Y+009000
X+020934Y+006181
X+020147Y+007303
X+020146Y-002739
X+016669Y-003334
X+015500Y+003500
X-006500Y-005250
X-001720Y-002107
T02
X+000275Y-000511
X+001275Y-000511
X+002275Y-000511
X+003275Y-000511
X+004275Y-000511
X+005275Y-000511
X+006275Y-000511
X+007275Y-000511
X+008275Y-000511
X+009275Y-000511
X+010275Y-000511
X+011275Y-000511
X+012275Y-000511
X+013275Y-000511
X+014275Y-000511
X+015275Y-000511
X+016275Y-000511
X+016275Y+000488
X+015275Y+000488
X+014275Y+000488
X+013275Y+000488
X+012275Y+000488
X+011275Y+000488
X+010275Y+000488
X+009275Y+000488
X+008275Y+000488
X+007275Y+000488
X+006275Y+000488
X+005275Y+000488
X+004275Y+000488
X+003275Y+000488
X+002275Y+000488
X+001275Y+000488
X+000275Y+000488
T03
X-008070Y-010826
X-006692Y+010826
T04
X-011417Y+009055
X-012913Y+009055
X-014409Y+009055
X-015905Y+009055
X-017401Y+009055
X+003149Y+009055
X+001653Y+009055
X+000157Y+009055
X-001338Y+009055
X-002834Y+009055
X+017322Y+009055
X+015826Y+009055
X+014330Y+009055
X+012834Y+009055
X+011338Y+009055
X-017401Y-009055
X-015905Y-009055
X-014409Y-009055
X-012913Y-009055
X-011417Y-009055
X-002755Y-009055
X-001259Y-009055
X+000236Y-009055
X+001732Y-009055
X+003228Y-009055
X+011417Y-009055
X+012913Y-009055
X+014409Y-009055
X+015905Y-009055
X+017401Y-009055
M30
