M48
INCH
T01C0.0400
T02C0.0393
T03C0.0300
%
T01
X-004724Y+001377
X-004724Y+000377
X-004724Y-000622
X-004724Y-001622
X-004724Y-002622
X+009251Y+001377
X+009251Y+000377
X+009251Y-000622
X+009251Y-001622
X+009251Y-002622
X-006102Y+001440
X-006102Y-002559
X+007291Y+000795
X+006291Y+000795
X+005291Y+000795
X+001385Y+000795
X+000385Y+000795
X-000614Y+000795
T02
X-007480Y+000196
X-007480Y-001299
X+003157Y-001763
X+002157Y-001763
X+005307Y-001763
X+004307Y-001763
X+007472Y-001763
X+006472Y-001763
T03
X-002755Y+000787
X-002755Y-000212
X-001976Y-001960
X-002976Y-001960
X+003732Y+000204
X+002732Y+000204
X+000385Y-001960
X-000614Y-001960
M30
