M48
INCH
T01C0.0150
T02C0.0393
T03C0.0400
T04C0.0984
%
T01
X-012000Y+008000
X-017500Y+008750
X-017500Y+007250
X-010250Y+008000
X-003000Y+007250
X+002250Y+008000
X-002500Y+006750
X+002750Y+008000
X+018500Y+008000
X+010000Y+008750
X-012250Y-006500
X-019250Y-005750
X-004250Y-005750
X+002250Y-006500
X+016500Y-006500
X+010961Y-006201
X-016000Y+011000
X-014250Y+011000
X+019685Y-006692
X-006250Y-008500
X-019500Y-002250
X-003500Y-009500
X-003503Y-007874
X+004250Y-004000
X+003250Y-004000
X-000500Y+000500
X-002053Y-003360
X-000457Y-002988
X-015139Y+003960
X-016354Y+002946
X-011811Y+002362
X-011811Y-002047
X-005906Y-001641
X+003937Y+003149
X+003543Y+001771
X-000515Y-000150
X+002535Y+006019
X+004437Y+005381
X-007284Y-006925
X-012146Y-007119
X-005536Y-005185
X-007086Y-002387
X-004998Y+000794
X-005002Y+002361
X-005950Y+003686
X-008448Y-005992
X-007344Y-004519
X-000317Y-008334
X-000430Y+001419
X+002127Y+001552
X+016500Y-007000
X+009250Y+007000
X-013250Y-010000
X-009750Y-004750
X+011250Y+007000
X+012500Y-002031
X-006496Y+006692
X-010750Y+007750
X-018750Y+008750
X+016089Y-006907
X-012204Y-010433
X-009804Y-010428
X+007250Y-004000
X+011250Y-008500
X+013500Y-007000
X+002250Y-004500
X+002750Y-006500
X-004527Y+009055
X-006102Y+009055
X+019194Y+008548
X-005182Y-003282
X-003630Y-003282
X-009759Y+005900
X-008750Y+000250
X-001500Y+001500
X+004000Y+001750
X+005000Y+003000
X+007750Y-001500
X+005000Y+005500
X-003500Y+011000
X+006248Y-001199
X+004353Y+004510
X+009000Y+007750
X+007250Y+004500
X-004000Y+002500
X-004000Y+001000
X-001000Y-004000
X+010750Y-001500
X-018000Y-001750
X-009750Y+004250
X-005906Y-003637
X-009385Y-006446
X+014500Y+002500
X+012750Y+002500
X+013750Y+001500
X-003250Y-000250
X-009250Y-000250
X-009250Y+003750
X+013976Y-002755
X-016500Y-003250
X+004250Y+010000
X+012750Y+001500
X-020250Y+007750
X+002000Y+010000
X-020250Y+005250
X-016500Y-004250
X-005507Y-002000
X+006750Y+002750
X+006750Y+005000
X-009251Y+005905
X-021250Y+006250
X-017500Y+005750
X-018000Y+004250
X-021250Y+005750
X+003250Y+008000
X+005500Y+008000
X+005500Y+005750
X-006000Y+006250
X-003500Y+007500
X-005750Y+002500
X-007000Y+006250
X+005500Y+002500
X-010000Y+000500
X-014750Y+000500
X-014750Y-005500
X-006250Y+002500
X-007500Y+005250
X-001159Y+005249
X+002250Y+004500
X+007250Y+004000
X+012250Y+002500
X-017500Y+006250
X-015250Y+005250
X+014500Y-009500
X-012007Y+004527
X-018250Y+004750
X+000250Y-009500
X-013965Y-010367
X+013981Y-008042
X+000739Y-002978
X+004274Y-002587
X+011887Y-002588
X+006476Y+001470
X+008239Y+001498
X+016763Y+002039
X+016535Y+004133
X+017125Y+004448
X-002088Y+010690
X-000992Y+011471
X+013829Y-001173
X+015656Y-001387
X+020649Y-001902
X+016271Y-009698
X+019082Y-009698
X+017507Y-001259
X+015039Y-002598
X+017559Y-001692
X+016496Y-002913
X+016535Y+002755
X-001181Y+010629
X+018908Y+004186
X+020228Y+008660
X+020396Y+004714
X+019921Y+003582
X+019105Y+003585
X+019917Y+002870
X+020000Y+002283
X+018206Y+001302
X+020691Y+000476
X+020382Y+000892
X+020654Y-001902
X+018700Y+000000
X+019423Y-001649
X+016247Y-003282
X+018002Y-003566
X+018007Y-002756
X+019419Y+001222
X+019923Y+000470
X+019803Y-005275
X+013836Y+004499
X-000118Y+005472
T02
X+018706Y+000775
X+018706Y+002271
X+018706Y-002242
X+018706Y-000746
X-019881Y+004330
X-018901Y+004320
X-016931Y+004310
X-015941Y+004310
X-008081Y+010230
X-009071Y+010230
X-013011Y+010220
X-014001Y+010220
X-017931Y+010210
X-008071Y+007290
X-008081Y+006310
X-015971Y+009220
X-016951Y+009210
X-018921Y+010210
X-019900Y+010210
X-020872Y+004324
X-005433Y+004330
X-004453Y+004320
X-002483Y+004310
X-001493Y+004310
X+006366Y+010230
X+005376Y+010230
X+001436Y+010220
X+000446Y+010220
X-003483Y+010210
X+006376Y+007290
X+006366Y+006310
X-001523Y+009220
X-002503Y+009210
X-004473Y+010210
X-005451Y+010210
X-006424Y+004324
X+008976Y+004330
X+009956Y+004320
X+011926Y+004310
X+012916Y+004310
X+020776Y+010230
X+019786Y+010230
X+015846Y+010220
X+014856Y+010220
X+010926Y+010210
X+020786Y+007290
X+020776Y+006310
X+012886Y+009220
X+011906Y+009210
X+009936Y+010210
X+008957Y+010210
X+007985Y+004324
X-019842Y-010236
X-018862Y-010246
X-016892Y-010256
X-015902Y-010256
X-008042Y-004336
X-009032Y-004336
X-012972Y-004346
X-013962Y-004346
X-017892Y-004356
X-008032Y-007276
X-008042Y-008256
X-015932Y-005346
X-016912Y-005356
X-018882Y-004356
X-019861Y-004356
X-020833Y-010242
X-005393Y-010236
X-004413Y-010246
X-002443Y-010256
X-001453Y-010256
X+006406Y-004336
X+005416Y-004336
X+001476Y-004346
X+000486Y-004346
X-003443Y-004356
X+006416Y-007276
X+006406Y-008256
X-001483Y-005346
X-002463Y-005356
X-004433Y-004356
X-005412Y-004356
X-006384Y-010242
X+008976Y-010236
X+009956Y-010246
X+011926Y-010256
X+012916Y-010256
X+020776Y-004336
X+019786Y-004336
X+015846Y-004346
X+014856Y-004346
X+010926Y-004356
X+020786Y-007276
X+020776Y-008256
X+012886Y-005346
X+011906Y-005356
X+009936Y-004356
X+008957Y-004356
X+007985Y-010242
T03
X-016141Y+001968
X-016141Y+000968
X-016141Y-000031
X-016141Y-001031
X-016141Y-002031
X-002165Y+001968
X-002165Y+000968
X-002165Y-000031
X-002165Y-001031
X-002165Y-002031
X+000275Y-000511
X+001275Y-000511
X+002275Y-000511
X+003275Y-000511
X+004275Y-000511
X+005275Y-000511
X+006275Y-000511
X+007275Y-000511
X+008275Y-000511
X+009275Y-000511
X+010275Y-000511
X+011275Y-000511
X+012275Y-000511
X+013275Y-000511
X+014275Y-000511
X+015275Y-000511
X+016275Y-000511
X+016275Y+000488
X+015275Y+000488
X+014275Y+000488
X+013275Y+000488
X+012275Y+000488
X+011275Y+000488
X+010275Y+000488
X+009275Y+000488
X+008275Y+000488
X+007275Y+000488
X+006275Y+000488
X+005275Y+000488
X+004275Y+000488
X+003275Y+000488
X+002275Y+000488
X+001275Y+000488
X+000275Y+000488
T04
X-006692Y+010826
X-008070Y-010826
M30
